# xmcd
#
# Track frame offsets:
#       150
#       14155
#       31549
#       57110
#       70564
#       84751
#       105106
#       119088
#       138650
#       154875
#       172347
#       188317
#
# Disc length: 2798 seconds
#
# Revision: 0
# Processed by: cddbd v1.5.2PL0 Copyright (c) Steve Scherf et al.
# Submitted via: WaveLab 4.01
#
DISCID=920aec0c
DTITLE=LEANDRO E ALEX - BEM MAIS ALEM
DYEAR=1900
DGENRE=
TTITLE0=CIDADAO DO CEU
TTITLE1=QUEM E SALVO VERA
TTITLE2=BEM MAIS ALEM
TTITLE3=SINONIMO
TTITLE4=NOVA VIDA
TTITLE5=FACA MISSAO
TTITLE6=FELIZ DEMAIS
TTITLE7=DEUS E MAIOR
TTITLE8=TEM PODER
TTITLE9=DEUS MARAVILHOSO
TTITLE10=POR ESSE AMOR
TTITLE11=CHORA VIOLA
EXTD=
EXTT0=
EXTT1=
EXTT2=
EXTT3=
EXTT4=
EXTT5=
EXTT6=
EXTT7=
EXTT8=
EXTT9=
EXTT10=
EXTT11=
PLAYORDER=
